<svg width="151" height="21" viewBox="0 0 151 21" fill="none" xmlns="http://www.w3.org/2000/svg">
<path d="M96 14.9831V3.34674H100.591C101.474 3.34674 102.225 3.5153 102.847 3.85242C103.468 4.18575 103.941 4.64977 104.267 5.24446C104.597 5.83537 104.761 6.51719 104.761 7.28992C104.761 8.06264 104.595 8.74446 104.261 9.33537C103.928 9.92628 103.445 10.3865 102.812 10.716C102.184 11.0456 101.422 11.2103 100.528 11.2103H97.6023V9.23878H100.131C100.604 9.23878 100.994 9.15734 101.301 8.99446C101.612 8.8278 101.843 8.59863 101.994 8.30696C102.15 8.01151 102.227 7.67249 102.227 7.28992C102.227 6.90355 102.15 6.56643 101.994 6.27855C101.843 5.98689 101.612 5.76151 101.301 5.60242C100.991 5.43954 100.597 5.3581 100.119 5.3581H98.4602V14.9831H96ZM107.021 14.9831H104.385L108.402 3.34674H111.572L115.584 14.9831H112.947L110.033 6.00583H109.942L107.021 14.9831ZM106.857 10.4092H113.084V12.3297H106.857V10.4092ZM115.115 3.34674H117.871L120.524 8.3581H120.638L123.291 3.34674H126.047L121.803 10.8694V14.9831H119.359V10.8694L115.115 3.34674Z" fill="white"/>
<path fill-rule="evenodd" clip-rule="evenodd" d="M135.863 13.8448L135.86 13.8493L135.857 13.8538C135.679 14.1058 135.28 14.1799 134.968 13.9596C134.718 13.7833 134.643 13.3905 134.856 13.0801C135.173 12.6758 135.403 12.2032 135.555 11.7411C135.712 11.2601 135.785 10.7136 135.783 10.1775C135.78 9.64151 135.701 9.09575 135.538 8.61646C135.382 8.15608 135.147 7.68594 134.825 7.28508C134.609 6.9769 134.68 6.5833 134.928 6.40436C135.237 6.18082 135.637 6.25063 135.817 6.50074L135.821 6.50523L135.824 6.50964C136.224 7.03718 136.552 7.62331 136.748 8.19837C136.955 8.87484 137.086 9.52921 137.09 10.1706C137.093 10.8455 137.029 11.4844 136.781 12.1133C136.511 12.7982 136.25 13.3231 135.863 13.8448ZM138.756 15.0976L138.763 15.0865L138.771 15.075C139.657 13.6544 140.169 11.9401 140.159 10.1542C140.15 8.36883 139.62 6.66051 138.719 5.24959C138.524 4.93983 138.611 4.57358 138.941 4.33574C139.162 4.17601 139.577 4.23257 139.823 4.56266C140.841 6.17729 141.456 8.12913 141.466 10.1473C141.477 12.2343 140.884 14.1228 139.883 15.7492C139.651 16.0681 139.296 16.1574 138.991 15.9767C138.659 15.7338 138.599 15.3201 138.756 15.0976ZM143.946 2.44037L143.955 2.45762L143.965 2.47411C145.344 4.72232 146.11 7.31556 146.125 10.1225C146.14 12.9281 145.402 15.5282 144.049 17.7903C143.841 18.124 143.491 18.2181 143.135 18.0528C142.812 17.8421 142.725 17.4929 142.894 17.1402C144.046 15.0955 144.761 12.6861 144.748 10.1298C144.734 7.58489 144.069 5.17931 142.817 3.1345C142.648 2.78535 142.732 2.43762 143.051 2.2245C143.437 2.04038 143.812 2.17534 143.946 2.44037ZM148.029 0.300799L148.035 0.312584L148.042 0.324019C149.713 3.21254 150.695 6.51498 150.714 10.098C150.733 13.6774 149.788 16.987 148.151 19.891C147.943 20.2209 147.595 20.3133 147.241 20.1487C146.919 19.9387 146.831 19.591 146.998 19.2395C148.575 16.5479 149.425 13.4294 149.407 10.105C149.389 6.772 148.432 3.66564 146.903 1.00054C146.711 0.611492 146.846 0.230458 147.114 0.0949668C147.506 -0.103908 147.893 0.0310919 148.029 0.300799Z" fill="white"/>
<g clip-path="url(#clip0_101_23)">
<path d="M26.386 4.37343C26.386 4.37343 26.2652 4.17327 26.0153 4.13061C25.7045 4.07811 25.3978 4.13827 25.2993 4.62389C25.2018 5.10733 25.152 5.72968 25.6538 6.16389L24.8819 6.39686L24.2207 5.53389C24.2207 5.53389 24.4766 5.63889 24.5112 5.43436C24.5538 5.18389 24.5538 4.95749 24.6097 4.57358C24.6686 4.17218 24.7854 3.75218 25.1429 3.53014C25.3379 3.40874 25.6487 3.33983 25.7512 3.25124C25.8305 3.18233 25.8518 2.96139 25.8863 2.72186L26.4368 3.17686L26.6095 3.98624L26.386 4.37343V4.37343Z" fill="#D7598B"/>
<path d="M26.907 4.61951C27.5761 4.61951 28.1186 4.03532 28.1186 3.31467C28.1186 2.59403 27.5761 2.00983 26.907 2.00983C26.2378 2.00983 25.6953 2.59403 25.6953 3.31467C25.6953 4.03532 26.2378 4.61951 26.907 4.61951Z" fill="#FCC21B"/>
<path d="M18.6141 4.37343C18.6141 4.37343 18.7349 4.17327 18.9848 4.13061C19.2955 4.07811 19.6023 4.13827 19.7008 4.62389C19.7983 5.10733 19.8491 5.72968 19.3463 6.16389L20.1182 6.39686L20.7794 5.53389C20.7794 5.53389 20.5234 5.63889 20.4889 5.43436C20.4462 5.18389 20.4462 4.95749 20.3904 4.57358C20.3305 4.17218 20.2147 3.75218 19.8572 3.53014C19.6622 3.40874 19.3514 3.33983 19.2488 3.25124C19.1696 3.18233 19.1483 2.96139 19.1137 2.72186L18.5633 3.17686L18.3906 3.98624L18.6141 4.37343V4.37343Z" fill="#D7598B"/>
<path d="M18.093 4.61951C18.7622 4.61951 19.3046 4.03532 19.3046 3.31467C19.3046 2.59403 18.7622 2.00983 18.093 2.00983C17.4238 2.00983 16.8813 2.59403 16.8813 3.31467C16.8813 4.03532 17.4238 4.61951 18.093 4.61951Z" fill="#FCC21B"/>
<path d="M26.8966 14.4775C26.853 14.1942 26.8987 13.8759 26.9454 13.6211C27.0287 13.1628 27.18 12.722 27.3293 12.2856C27.377 12.1445 27.4258 12.0034 27.4715 11.8624C27.6238 11.3899 27.7071 10.8889 27.7071 10.3672C27.7071 7.58141 26.0029 5.32391 22.501 5.32391C18.9991 5.32391 17.2949 7.58251 17.2949 10.3672C17.2949 10.8539 17.367 11.3231 17.5011 11.7683C17.753 12.6039 18.1602 13.4363 18.1338 14.3364C18.1186 14.8767 17.8322 15.1534 17.4808 15.4783C17.3721 15.5789 17.3518 15.743 17.4889 15.8272C17.8037 16.0219 18.3339 15.8064 18.6396 15.6741C18.9128 15.5559 19.1687 15.3536 19.382 15.1184C19.4917 14.9981 19.5933 14.8702 19.6938 14.7422C19.7771 14.6372 19.9152 14.3681 20.0737 14.4447C20.419 14.612 20.0148 15.3044 19.8401 15.4706C19.769 15.5384 19.6725 15.5997 19.64 15.7025C19.6034 15.8152 19.6776 15.9136 19.772 15.9541C20.0361 16.0678 20.613 15.8753 20.877 15.685C21.0659 15.5483 21.2234 15.3733 21.3554 15.1731C21.4377 15.0484 21.5798 14.6547 21.7637 14.7017C22.1009 14.7892 21.9587 15.3613 21.981 15.6095C21.9922 15.7364 22.0602 15.8633 22.178 15.9125C22.434 16.0208 22.6595 15.8261 22.8098 15.6249C22.9773 15.4006 23.0576 15.1524 23.1886 14.9095C23.2932 14.7138 23.476 14.6733 23.607 14.8756C23.798 15.1699 23.9158 15.4499 24.2195 15.6369C24.4693 15.79 24.7577 15.8852 25.0462 15.8874C25.1731 15.8874 25.7358 15.8152 25.5459 15.5472C25.4626 15.4313 25.3031 15.4028 25.1945 15.3164C25.0157 15.1731 24.9334 14.9358 24.9273 14.7017C24.9192 14.3681 25.2188 14.4534 25.3661 14.6142C25.6048 14.8745 25.747 15.2442 26.0547 15.4225C26.4234 15.6358 26.9982 15.7397 27.4045 15.6052C27.5426 15.5592 27.701 15.4947 27.7102 15.3153C27.7193 15.1458 27.5852 15.1053 27.4593 15.067C27.2978 15.0189 27.1861 14.9752 27.0622 14.8417C26.9687 14.7455 26.918 14.6142 26.8966 14.4775V14.4775Z" fill="#D7598B"/>
<path d="M23.3167 10.8299L25.1671 9.8772C25.1671 9.8772 25.4251 10.307 25.3621 10.8134C25.3235 11.1164 25.1367 11.4697 24.7172 11.6206C24.3394 11.7563 24.0286 11.7092 23.8255 11.6119C23.341 11.3811 23.3167 10.8299 23.3167 10.8299ZM21.6267 10.8299L19.7762 9.8772C19.7762 9.8772 19.5182 10.307 19.5812 10.8134C19.6198 11.1164 19.8077 11.4697 20.2261 11.6206C20.6039 11.7563 20.9147 11.7092 21.1178 11.6119C21.6033 11.3811 21.6267 10.8299 21.6267 10.8299Z" fill="#BDCF46"/>
<path d="M23.602 12.3851C23.5644 12.2484 23.4334 12.1303 23.3004 12.1248C23.1409 12.1183 23.0393 12.279 22.9215 12.3676C22.7854 12.4705 22.6158 12.5437 22.4472 12.5273C22.2431 12.5065 22.1354 12.3589 21.979 12.2386C21.8368 12.1303 21.6591 12.1292 21.5332 12.2714C21.4733 12.3392 21.4408 12.4322 21.4458 12.5262C21.4519 12.6498 21.5281 12.7756 21.6093 12.8576C21.9283 13.1825 22.4239 13.2536 22.8362 13.1398C23.1236 13.06 23.7229 12.8194 23.602 12.3851V12.3851Z" fill="#2F2F2F"/>
</g>
<path d="M1.27841 3.36364H3.40909L7.11364 12.4091H7.25L10.9545 3.36364H13.0852V15H11.4148V6.57955H11.3068L7.875 14.983H6.48864L3.05682 6.57386H2.94886V15H1.27841V3.36364ZM41.9673 3.36364V15H40.3537L34.4389 6.46591H34.331V15H32.5753V3.36364H34.2003L40.1207 11.9091H40.2287V3.36364H41.9673ZM50.875 6.42045C50.8144 5.88258 50.5644 5.46591 50.125 5.17045C49.6856 4.87121 49.1326 4.72159 48.4659 4.72159C47.9886 4.72159 47.5758 4.79735 47.2273 4.94886C46.8788 5.09659 46.608 5.30114 46.4148 5.5625C46.2254 5.82008 46.1307 6.11364 46.1307 6.44318C46.1307 6.7197 46.1951 6.95833 46.3239 7.15909C46.4564 7.35985 46.6288 7.52841 46.8409 7.66477C47.0568 7.79735 47.2879 7.90909 47.5341 8C47.7803 8.08712 48.017 8.15909 48.2443 8.21591L49.3807 8.51136C49.7519 8.60227 50.1326 8.72538 50.5227 8.88068C50.9129 9.03598 51.2746 9.24053 51.608 9.49432C51.9413 9.74811 52.2102 10.0625 52.4148 10.4375C52.6231 10.8125 52.7273 11.2614 52.7273 11.7841C52.7273 12.4432 52.5568 13.0284 52.2159 13.5398C51.8788 14.0511 51.3883 14.4545 50.7443 14.75C50.1042 15.0455 49.3295 15.1932 48.4205 15.1932C47.5492 15.1932 46.7955 15.0549 46.1591 14.7784C45.5227 14.5019 45.0246 14.1098 44.6648 13.6023C44.3049 13.0909 44.1061 12.4848 44.0682 11.7841H45.8295C45.8636 12.2045 46 12.5549 46.2386 12.8352C46.4811 13.1117 46.7898 13.3182 47.1648 13.4545C47.5436 13.5871 47.9583 13.6534 48.4091 13.6534C48.9053 13.6534 49.3466 13.5758 49.733 13.4205C50.1231 13.2614 50.4299 13.0417 50.6534 12.7614C50.8769 12.4773 50.9886 12.1458 50.9886 11.767C50.9886 11.4223 50.8902 11.1402 50.6932 10.9205C50.5 10.7008 50.2367 10.5189 49.9034 10.375C49.5739 10.2311 49.2008 10.1042 48.7841 9.99432L47.4091 9.61932C46.4773 9.36553 45.7386 8.99242 45.1932 8.5C44.6515 8.00758 44.3807 7.35606 44.3807 6.54545C44.3807 5.875 44.5625 5.28977 44.9261 4.78977C45.2898 4.28977 45.7822 3.90151 46.4034 3.625C47.0246 3.3447 47.7254 3.20455 48.5057 3.20455C49.2936 3.20455 49.9886 3.3428 50.5909 3.61932C51.197 3.89583 51.6742 4.27652 52.0227 4.76136C52.3712 5.24242 52.553 5.79545 52.5682 6.42045H50.875ZM54.2514 4.875V3.36364H63.2571V4.875H59.6264V15H57.8764V4.875H54.2514ZM65.2472 15V3.36364H72.5426V4.875H67.0028V8.42045H72.1619V9.92614H67.0028V13.4886H72.6108V15H65.2472ZM74.8878 15V3.36364H79.0355C79.937 3.36364 80.6851 3.51894 81.2798 3.82955C81.8783 4.14015 82.3253 4.57008 82.6207 5.11932C82.9162 5.66477 83.0639 6.29545 83.0639 7.01136C83.0639 7.72348 82.9143 8.35038 82.6151 8.89205C82.3196 9.42992 81.8726 9.84848 81.2741 10.1477C80.6795 10.447 79.9313 10.5966 79.0298 10.5966H75.8878V9.08523H78.8707C79.4389 9.08523 79.901 9.00379 80.2571 8.84091C80.617 8.67803 80.8802 8.44129 81.0469 8.13068C81.2135 7.82008 81.2969 7.44697 81.2969 7.01136C81.2969 6.57197 81.2116 6.19129 81.0412 5.86932C80.8745 5.54735 80.6113 5.30114 80.2514 5.13068C79.8954 4.95644 79.4276 4.86932 78.848 4.86932H76.6435V15H74.8878ZM80.6321 9.75L83.5071 15H81.5071L78.6889 9.75H80.6321ZM91.5469 6.42045C91.4863 5.88258 91.2363 5.46591 90.7969 5.17045C90.3575 4.87121 89.8045 4.72159 89.1378 4.72159C88.6605 4.72159 88.2476 4.79735 87.8991 4.94886C87.5507 5.09659 87.2798 5.30114 87.0866 5.5625C86.8973 5.82008 86.8026 6.11364 86.8026 6.44318C86.8026 6.7197 86.867 6.95833 86.9957 7.15909C87.1283 7.35985 87.3007 7.52841 87.5128 7.66477C87.7287 7.79735 87.9598 7.90909 88.206 8C88.4522 8.08712 88.6889 8.15909 88.9162 8.21591L90.0526 8.51136C90.4238 8.60227 90.8045 8.72538 91.1946 8.88068C91.5848 9.03598 91.9465 9.24053 92.2798 9.49432C92.6132 9.74811 92.8821 10.0625 93.0866 10.4375C93.295 10.8125 93.3991 11.2614 93.3991 11.7841C93.3991 12.4432 93.2287 13.0284 92.8878 13.5398C92.5507 14.0511 92.0601 14.4545 91.4162 14.75C90.776 15.0455 90.0014 15.1932 89.0923 15.1932C88.2211 15.1932 87.4673 15.0549 86.831 14.7784C86.1946 14.5019 85.6965 14.1098 85.3366 13.6023C84.9768 13.0909 84.7779 12.4848 84.7401 11.7841H86.5014C86.5355 12.2045 86.6719 12.5549 86.9105 12.8352C87.1529 13.1117 87.4616 13.3182 87.8366 13.4545C88.2154 13.5871 88.6302 13.6534 89.081 13.6534C89.5772 13.6534 90.0185 13.5758 90.4048 13.4205C90.795 13.2614 91.1018 13.0417 91.3253 12.7614C91.5488 12.4773 91.6605 12.1458 91.6605 11.767C91.6605 11.4223 91.562 11.1402 91.3651 10.9205C91.1719 10.7008 90.9086 10.5189 90.5753 10.375C90.2457 10.2311 89.8726 10.1042 89.456 9.99432L88.081 9.61932C87.1491 9.36553 86.4105 8.99242 85.8651 8.5C85.3234 8.00758 85.0526 7.35606 85.0526 6.54545C85.0526 5.875 85.2344 5.28977 85.598 4.78977C85.9616 4.28977 86.4541 3.90151 87.0753 3.625C87.6965 3.3447 88.3973 3.20455 89.1776 3.20455C89.9654 3.20455 90.6605 3.3428 91.2628 3.61932C91.8688 3.89583 92.3461 4.27652 92.6946 4.76136C93.0431 5.24242 93.2249 5.79545 93.2401 6.42045H91.5469Z" fill="#FCC21B"/>
<defs>
<clipPath id="clip0_101_23">
<rect width="13" height="14" fill="white" transform="translate(16 2)"/>
</clipPath>
</defs>
</svg>
